<svg width="920" height="677" viewBox="0 0 920 677" fill="none" xmlns="http://www.w3.org/2000/svg">
<path d="M910.233 56.8211C900.489 52.0463 896.293 61.1457 890.595 65.7682C888.646 67.2594 886.998 69.1974 885.348 70.9865C871.107 86.1963 854.468 96.191 832.73 94.9961C800.95 93.2054 773.816 103.2 749.83 127.509C744.733 97.5332 727.794 79.6341 702.009 68.1531C688.519 62.1867 674.877 56.2204 665.432 43.2449C658.836 34.0015 657.037 23.7105 653.739 13.5685C651.639 7.45482 649.541 1.18889 642.494 0.144568C634.849 -1.04707 631.851 5.3629 628.852 10.7351C616.86 32.6593 612.213 56.8195 612.662 81.2775C613.711 136.311 636.948 180.154 683.118 211.325C688.366 214.905 689.714 218.481 688.066 223.705C684.917 234.442 681.169 244.881 677.872 255.619C675.773 262.48 672.623 263.972 665.279 260.986C639.944 250.4 618.056 234.739 598.718 215.8C565.889 184.033 536.207 148.987 499.181 121.544C490.486 115.131 481.79 109.168 472.795 103.498C435.017 66.8125 477.743 36.6844 487.637 33.1078C497.979 29.379 491.234 16.5509 457.804 16.7031C424.374 16.8504 393.793 28.0368 354.817 42.9503C349.122 45.1879 343.123 46.8264 336.977 48.1686C301.599 41.4591 264.871 39.9646 226.494 44.2925C154.238 52.3443 96.5247 86.4975 54.1006 144.811C3.13277 214.905 -8.85957 294.542 5.83174 377.613C21.2727 465.154 65.944 537.634 134.603 594.309C205.811 653.066 287.811 681.851 381.354 676.333C438.17 673.052 501.431 665.448 572.788 605.047C590.775 613.996 609.665 617.572 640.997 620.257C665.132 622.494 688.369 619.065 706.357 615.338C734.539 609.372 732.592 583.272 722.398 578.5C639.799 540.024 657.935 555.683 641.447 543.005C683.421 493.344 746.684 441.74 771.418 274.557C773.366 261.285 771.718 252.932 771.418 242.195C771.268 235.634 772.767 233.1 780.263 232.352C800.95 229.966 821.037 224.3 839.477 214.158C892.995 184.929 914.58 136.906 919.677 79.3395C920.428 70.5397 919.528 61.4403 910.233 56.8211ZM443.866 574.919C363.815 511.986 324.99 491.254 308.948 492.149C293.957 493.044 296.656 510.196 299.953 521.382C303.401 532.416 307.899 540.024 314.194 549.716C318.541 556.129 321.541 565.672 309.848 572.834C284.063 588.791 239.24 567.463 237.14 566.42C184.974 535.696 141.35 495.13 110.617 439.655C80.9348 386.26 63.6968 328.994 60.8472 267.848C60.0976 253.085 64.4448 247.861 79.1361 245.18C98.4741 241.6 118.413 240.852 137.751 243.686C219.453 255.619 289.009 292.157 347.323 350.022C380.603 382.98 405.787 422.355 431.723 460.831C459.305 501.692 488.987 540.62 526.764 572.534C540.105 583.719 550.749 592.219 560.943 598.485C530.213 601.914 478.944 602.662 443.866 574.919ZM482.242 328.099C482.242 321.537 487.489 316.318 494.087 316.318C495.586 316.318 496.935 316.613 498.135 317.06C499.785 317.659 501.284 318.554 502.482 319.893C504.582 321.984 505.78 324.964 505.78 328.097C505.78 334.66 500.534 339.878 493.94 339.878C487.345 339.878 482.242 334.661 482.242 328.099ZM601.421 389.246C593.776 392.379 586.13 395.06 578.785 395.36C567.391 395.955 554.949 391.331 548.204 385.664C537.711 376.865 530.215 371.946 527.067 356.584C525.717 350.022 526.467 339.88 527.668 334.065C530.365 321.537 527.367 313.485 518.523 306.175C511.327 300.208 502.182 298.57 492.138 298.57C488.39 298.57 484.944 296.928 482.394 295.586C478.196 293.499 474.751 288.279 478.047 281.866C479.096 279.78 484.195 274.708 485.394 273.814C499.037 266.057 514.777 268.594 529.318 274.41C542.811 279.928 553.005 290.07 567.694 304.386C582.685 321.684 585.382 326.461 593.928 339.433C600.676 349.575 606.822 360.013 611.018 371.946C613.567 379.403 610.266 385.517 601.421 389.246Z" fill="#4D6BFE"/>
</svg>
