<svg width="40" height="60" viewBox="0 0 40 60" fill="none" xmlns="http://www.w3.org/2000/svg">
<path d="M19.8516 29.7758C19.8516 27.1435 20.8973 24.619 22.7586 22.7576C24.6199 20.8963 27.1445 19.8506 29.7768 19.8506C32.4091 19.8506 34.9336 20.8963 36.795 22.7576C38.6563 24.619 39.702 27.1435 39.702 29.7758C39.702 32.4081 38.6563 34.9327 36.795 36.794C34.9336 38.6553 32.4091 39.701 29.7768 39.701C27.1445 39.701 24.6199 38.6553 22.7586 36.794C20.8973 34.9327 19.8516 32.4081 19.8516 29.7758Z" fill="#1ABCFE"/>
<path d="M0 49.6264C0 46.9941 1.04569 44.4695 2.90703 42.6082C4.76837 40.7469 7.29289 39.7012 9.92523 39.7012H19.8505V49.6264C19.8505 52.2587 18.8048 54.7833 16.9434 56.6446C15.0821 58.5059 12.5576 59.5516 9.92523 59.5516C7.29289 59.5516 4.76837 58.5059 2.90703 56.6446C1.04569 54.7833 0 52.2587 0 49.6264H0Z" fill="#0ACF83"/>
<path d="M19.8516 0V19.8505H29.7768C32.4091 19.8505 34.9336 18.8048 36.795 16.9434C38.6563 15.0821 39.702 12.5576 39.702 9.92523C39.702 7.29289 38.6563 4.76837 36.795 2.90703C34.9336 1.04569 32.4091 0 29.7768 0L19.8516 0Z" fill="#FF7262"/>
<path d="M0 9.92523C0 12.5576 1.04569 15.0821 2.90703 16.9434C4.76837 18.8048 7.29289 19.8505 9.92523 19.8505H19.8505V0H9.92523C7.29289 0 4.76837 1.04569 2.90703 2.90703C1.04569 4.76837 0 7.29289 0 9.92523H0Z" fill="#F24E1E"/>
<path d="M0 29.7758C0 32.4081 1.04569 34.9327 2.90703 36.794C4.76837 38.6553 7.29289 39.701 9.92523 39.701H19.8505V19.8506H9.92523C7.29289 19.8506 4.76837 20.8963 2.90703 22.7576C1.04569 24.619 0 27.1435 0 29.7758H0Z" fill="#A259FF"/>
</svg>
