<svg width="702" height="710" viewBox="0 0 702 710" fill="none" xmlns="http://www.w3.org/2000/svg">
<path d="M655.102 290.59C671.21 242.243 665.663 189.282 639.903 145.306C601.164 77.8559 523.286 43.1547 447.227 59.4847C413.391 21.3666 364.778 -0.310628 313.814 -2.75741e-06C236.069 -0.177503 167.088 49.8775 143.17 123.851C93.2256 134.079 50.1153 165.341 24.8881 209.65C-14.1397 276.922 -5.24253 361.723 46.8981 419.41C30.79 467.757 36.3369 520.718 62.0965 564.694C100.836 632.144 178.714 666.845 254.773 650.515C288.587 688.633 337.222 710.311 388.186 709.978C465.976 710.177 534.979 660.078 558.897 586.038C608.841 575.81 651.951 544.548 677.178 500.239C716.162 432.967 707.243 348.233 655.124 290.545L655.102 290.59ZM388.231 663.584C357.102 663.628 326.949 652.734 303.053 632.788C304.14 632.211 306.026 631.168 307.246 630.413L448.625 548.763C455.858 544.659 460.296 536.96 460.251 528.639V329.329L520.002 363.831C520.646 364.141 521.067 364.763 521.156 365.473V530.525C521.067 603.922 461.627 663.428 388.231 663.584ZM102.367 541.486C86.769 514.55 81.1556 482.977 86.5028 452.337C87.5456 452.958 89.3872 454.089 90.6962 454.844L232.075 536.494C239.242 540.687 248.117 540.687 255.305 536.494L427.902 436.827V505.831C427.946 506.541 427.613 507.228 427.059 507.672L284.149 590.188C220.493 626.841 139.198 605.053 102.389 541.486H102.367ZM65.1584 232.88C80.6897 205.9 105.207 185.266 134.406 174.549C134.406 175.769 134.339 177.922 134.339 179.43V342.752C134.295 351.051 138.732 358.75 145.943 362.854L318.54 462.498L258.789 497C258.19 497.399 257.435 497.466 256.77 497.177L113.838 414.596C50.315 377.809 28.5268 296.536 65.1362 232.902L65.1584 232.88ZM556.079 347.123L383.482 247.457L443.233 212.978C443.832 212.578 444.587 212.512 445.252 212.8L588.184 295.316C651.818 332.08 673.628 413.486 636.864 477.12C621.31 504.056 596.815 524.69 567.639 535.429V367.225C567.705 358.927 563.29 351.25 556.101 347.123H556.079ZM615.542 257.619C614.499 256.976 612.657 255.866 611.348 255.112L469.969 173.462C462.803 169.268 453.928 169.268 446.739 173.462L274.142 273.128V204.125C274.098 203.415 274.431 202.727 274.986 202.283L417.895 119.835C481.551 83.1144 562.935 104.969 599.633 168.647C615.142 195.538 620.756 227.023 615.497 257.619H615.542ZM241.66 380.604L181.887 346.103C181.243 345.792 180.822 345.171 180.733 344.461V179.408C180.777 105.923 240.395 46.3719 313.88 46.4162C344.965 46.4162 375.051 57.3325 398.947 77.2125C397.86 77.7894 395.996 78.8322 394.754 79.5866L253.375 161.237C246.142 165.341 241.704 173.018 241.749 181.338L241.66 380.56V380.604ZM274.12 310.625L351 266.228L427.88 310.603V399.375L351 443.75L274.12 399.375V310.625Z" fill="black"/>
</svg>
