<svg xmlns="http://www.w3.org/2000/svg" width="16" height="16"
  viewBox="0 0 16 16"
  fill="none">
  <path
    d="M14.6562 7.64887L11.8375 10.1089L12.6818 13.7714C12.7265 13.9628 12.7138 14.1632 12.6452 14.3475C12.5766 14.5317 12.4552 14.6917 12.2962 14.8073C12.1372 14.923 11.9477 14.9892 11.7512 14.9977C11.5548 15.0062 11.3602 14.9566 11.1918 14.8551L7.99746 12.9176L4.80996 14.8551C4.64157 14.9566 4.447 15.0062 4.25057 14.9977C4.05415 14.9892 3.86459 14.923 3.70559 14.8073C3.54659 14.6917 3.42521 14.5317 3.35662 14.3475C3.28803 14.1632 3.27528 13.9628 3.31996 13.7714L4.16309 10.1126L1.34372 7.64887C1.1946 7.52026 1.08677 7.35048 1.03375 7.16084C0.980734 6.97119 0.98489 6.77011 1.0457 6.58281C1.10651 6.39552 1.22126 6.23034 1.37556 6.108C1.52987 5.98567 1.71686 5.91161 1.91309 5.89512L5.62934 5.57324L7.07996 2.11324C7.15572 1.93169 7.2835 1.77661 7.44721 1.66753C7.61092 1.55845 7.80324 1.50024 7.99996 1.50024C8.19669 1.50024 8.38901 1.55845 8.55272 1.66753C8.71643 1.77661 8.84421 1.93169 8.91996 2.11324L10.375 5.57324L14.09 5.89512C14.2862 5.91161 14.4732 5.98567 14.6275 6.108C14.7818 6.23034 14.8965 6.39552 14.9574 6.58281C15.0182 6.77011 15.0223 6.97119 14.9693 7.16084C14.9163 7.35048 14.8085 7.52026 14.6593 7.64887H14.6562Z"
    fill="#F79828"/>
</svg>