<svg data-v-0dd9719b="" version="1.0" xmlns="http://www.w3.org/2000/svg" xmlns:xlink="http://www.w3.org/1999/xlink"
	width="100%" height="100%" viewBox="0 0 340.000000 250.000000" preserveAspectRatio="xMidYMid meet"
	color-interpolation-filters="sRGB" style="margin: auto;">
	<rect data-v-0dd9719b="" x="0" y="0" width="100%" height="100%" fill="#fff" fill-opacity="1" class="background">
	</rect>
	<rect data-v-0dd9719b="" x="0" y="0" width="100%" height="100%" fill="url(#watermark)" fill-opacity="1"
		class="watermarklayer"></rect>
	<g data-v-0dd9719b="" fill="#008ab3" class="icon-text-wrapper icon-svg-group iconsvg"
		transform="translate(66.48500061035156,69.59246063232422)">
		<g class="iconsvg-imagesvg" transform="translate(73.51499938964844,0)">
			<g>
				<rect fill="#008ab3" fill-opacity="0" stroke-width="2" x="0" y="0" width="60" height="53.249081453344935"
					class="image-rect"></rect> <svg x="0" y="0" width="60" height="53.249081453344935"
					filtersec="colorsb6775300332" class="image-svg-svg primary" style="overflow: visible;"><svg
						xmlns="http://www.w3.org/2000/svg" viewBox="0 0 264.94000244140625 235.1300048828125">
						<g>
							<g fill-rule="evenodd">
								<path
									d="M129.2 0l46.46 80.46C111 106 63.46 142.06 23.6 182.91l37.73-65.35L129.2 0zm56.65 98.12c-25.34 20.62-45.53 43.94-45.53 72.47 0 39.63 61 64.54 124.62 64.54l-67.87-117.57z"
									fill="#008ab3"></path>
								<path
									d="M0 235.12C59.36 155.44 137.4 99.6 230.92 63.52c-48.53 28.6-119.1 75.92-119.1 117.28 0 23.38 22.06 44.61 44.36 54.32z"
									fill="#e94a2e"></path>
							</g>
						</g>
					</svg></svg> <!---->
			</g>
		</g>
		<g transform="translate(0,60.249080657958984)">
			<g data-gra="path-name" fill-rule="" class="tp-name iconsvg-namesvg" transform="translate(0,0)">
				<g transform="scale(1)">
					<g>
						<path
							d="M10.73-3.84L10.73-3.84Q13.18-3.84 14.32-4.79 15.46-5.74 15.46-7.18L15.46-7.18Q15.46-8.49 14.57-9.27 13.68-10.05 11.87-10.6L11.87-10.6 9.16-11.45Q7.56-11.95 6.25-12.59 4.94-13.22 4.01-14.08 3.08-14.95 2.58-16.11 2.07-17.27 2.07-18.88L2.07-18.88Q2.07-22.3 4.65-24.31 7.22-26.31 11.7-26.31L11.7-26.31Q13.47-26.31 14.97-26.04 16.47-25.76 17.57-25.28 18.67-24.79 19.28-24.07 19.89-23.36 19.89-22.47L19.89-22.47Q19.89-21.62 19.49-21.01 19.09-20.4 18.5-20.02L18.5-20.02Q17.48-20.74 15.82-21.26 14.15-21.79 12.16-21.79L12.16-21.79Q9.97-21.79 8.83-21.01 7.69-20.23 7.69-18.88L7.69-18.88Q7.69-17.78 8.47-17.19 9.25-16.6 10.94-16.05L10.94-16.05 13.35-15.29Q17.02-14.19 19.05-12.29 21.07-10.39 21.07-7.14L21.07-7.14Q21.07-5.41 20.4-3.97 19.72-2.53 18.44-1.5 17.15-0.46 15.23 0.11 13.3 0.68 10.85 0.68L10.85 0.68Q8.91 0.68 7.29 0.34 5.66 0 4.48-0.57 3.29-1.14 2.64-1.92 1.98-2.7 1.98-3.63L1.98-3.63Q1.98-4.6 2.56-5.3 3.13-6 3.89-6.34L3.89-6.34Q4.94-5.41 6.67-4.62 8.4-3.84 10.73-3.84ZM34.72 0.59L34.72 0.59Q33.49 0.59 32.46 0.36 31.42 0.13 30.58-0.21L30.58-0.21 30.58 7.56Q30.2 7.64 29.56 7.77 28.93 7.9 28.13 7.9L28.13 7.9Q26.65 7.9 25.93 7.35 25.21 6.8 25.21 5.41L25.21 5.41 25.21-16.01Q25.21-17.02 25.61-17.65 26.02-18.29 26.9-18.84L26.9-18.84Q28.13-19.55 29.94-20.08 31.76-20.61 34.04-20.61L34.04-20.61Q36.36-20.61 38.33-20 40.29-19.39 41.73-18.1 43.16-16.81 43.97-14.82 44.77-12.84 44.77-10.09L44.77-10.09Q44.77-7.43 44.01-5.45 43.25-3.46 41.92-2.11 40.59-0.76 38.75-0.08 36.91 0.59 34.72 0.59ZM33.91-3.67L33.91-3.67Q36.45-3.67 37.88-5.24 39.32-6.8 39.32-10.09L39.32-10.09Q39.32-13.51 37.84-14.95 36.36-16.39 34.04-16.39L34.04-16.39Q32.9-16.39 32.03-16.09 31.17-15.8 30.53-15.46L30.53-15.46 30.53-4.6Q31.21-4.18 32.03-3.93 32.86-3.67 33.91-3.67ZM57.1-3.42L57.1-3.42Q58.32-3.42 59.34-3.65 60.35-3.89 60.82-4.22L60.82-4.22 60.82-8.91 56.72-8.53Q55.03-8.36 54.14-7.79 53.26-7.22 53.26-6L53.26-6Q53.26-4.77 54.16-4.1 55.07-3.42 57.1-3.42ZM56.93-20.61L56.93-20.61Q61.07-20.61 63.54-18.84 66.01-17.06 66.01-13.35L66.01-13.35 66.01-3.59Q66.01-2.58 65.5-1.98 65-1.39 64.24-0.93L64.24-0.93Q63.05-0.21 61.24 0.21 59.42 0.63 57.1 0.63L57.1 0.63Q52.88 0.63 50.45-0.99 48.02-2.62 48.02-5.87L48.02-5.87Q48.02-8.7 49.81-10.2 51.61-11.7 55.03-12.04L55.03-12.04 60.82-12.63 60.82-13.39Q60.82-14.99 59.66-15.75 58.49-16.51 56.38-16.51L56.38-16.51Q54.73-16.51 53.17-16.11 51.61-15.71 50.38-15.12L50.38-15.12Q49.92-15.46 49.6-16.03 49.29-16.6 49.29-17.27L49.29-17.27Q49.29-18.12 49.69-18.65 50.09-19.17 50.98-19.6L50.98-19.6Q52.2-20.1 53.76-20.36 55.33-20.61 56.93-20.61ZM81.6-16.34L81.6-16.34Q80.33-16.34 79.25-15.92 78.17-15.5 77.39-14.7 76.61-13.89 76.15-12.71 75.68-11.53 75.68-9.97L75.68-9.97Q75.68-6.84 77.33-5.26 78.98-3.67 81.6-3.67L81.6-3.67Q83.07-3.67 84.15-4.08 85.23-4.48 86.07-4.94L86.07-4.94Q86.66-4.52 87.02-3.97 87.38-3.42 87.38-2.7L87.38-2.7Q87.38-1.27 85.69-0.34 84 0.59 81.13 0.59L81.13 0.59Q78.72 0.59 76.72-0.06 74.71-0.72 73.28-2.05 71.84-3.38 71.06-5.36 70.28-7.35 70.28-9.97L70.28-9.97Q70.28-12.63 71.12-14.63 71.97-16.64 73.42-17.97 74.88-19.3 76.82-19.96 78.77-20.61 80.96-20.61L80.96-20.61Q83.79-20.61 85.48-19.62 87.17-18.63 87.17-17.19L87.17-17.19Q87.17-16.51 86.81-15.96 86.45-15.42 85.99-15.08L85.99-15.08Q85.14-15.54 84.11-15.94 83.07-16.34 81.6-16.34ZM107.19-9.29L95.45-7.6Q96.04-5.45 97.64-4.48 99.25-3.51 101.61-3.51L101.61-3.51Q103.39-3.51 104.89-4.03 106.39-4.56 107.32-5.15L107.32-5.15Q107.91-4.81 108.29-4.22 108.67-3.63 108.67-2.96L108.67-2.96Q108.67-2.11 108.1-1.46 107.53-0.8 106.53-0.34 105.54 0.13 104.19 0.38 102.84 0.63 101.28 0.63L101.28 0.63Q98.78 0.63 96.74-0.04 94.69-0.72 93.23-2.09 91.77-3.46 90.95-5.49 90.13-7.52 90.13-10.22L90.13-10.22Q90.13-12.84 90.93-14.78 91.73-16.72 93.1-18.03 94.48-19.34 96.29-19.98 98.11-20.61 100.14-20.61L100.14-20.61Q102.21-20.61 103.94-19.96 105.67-19.3 106.89-18.14 108.12-16.98 108.82-15.35 109.51-13.73 109.51-11.83L109.51-11.83Q109.51-10.64 108.9-10.05 108.29-9.46 107.19-9.29L107.19-9.29ZM100.14-16.6L100.14-16.6Q98.07-16.6 96.67-15.23 95.28-13.85 95.11-11.32L95.11-11.32 104.49-12.71Q104.32-14.27 103.26-15.44 102.21-16.6 100.14-16.6ZM118.85-20.65L118.85-18.67 126.49-18.67Q126.7-18.33 126.87-17.8 127.04-17.27 127.04-16.64L127.04-16.64Q127.04-15.54 126.53-15.04 126.03-14.53 125.18-14.53L125.18-14.53 119.1-14.53 119.1-0.04Q118.72 0.04 118.09 0.17 117.45 0.3 116.65 0.3L116.65 0.3Q115.17 0.3 114.45-0.25 113.74-0.8 113.74-2.2L113.74-2.2 113.74-20.86Q113.74-22.89 114.37-24.33 115-25.76 116.14-26.69 117.28-27.62 118.85-28.06 120.41-28.51 122.27-28.51L122.27-28.51Q127.88-28.51 127.88-25.55L127.88-25.55Q127.88-24.88 127.61-24.35 127.33-23.82 126.95-23.48L126.95-23.48Q126.15-23.82 125.16-24.03 124.17-24.24 123.07-24.24L123.07-24.24Q120.87-24.24 119.86-23.4 118.85-22.55 118.85-20.65L118.85-20.65ZM149.8-10.01L149.8-10.01Q149.8-7.56 149.06-5.6 148.32-3.63 146.97-2.24 145.62-0.84 143.72-0.11 141.82 0.63 139.46 0.63L139.46 0.63Q137.09 0.63 135.19-0.11 133.29-0.84 131.94-2.22 130.59-3.59 129.85-5.55 129.11-7.52 129.11-10.01L129.11-10.01Q129.11-12.46 129.85-14.42 130.59-16.39 131.96-17.76 133.33-19.13 135.23-19.87 137.13-20.61 139.46-20.61L139.46-20.61Q141.78-20.61 143.68-19.87 145.58-19.13 146.95-17.74 148.32-16.34 149.06-14.38 149.8-12.42 149.8-10.01ZM139.46-16.39L139.46-16.39Q137.18-16.39 135.87-14.72 134.56-13.05 134.56-10.01L134.56-10.01Q134.56-6.93 135.84-5.28 137.13-3.63 139.46-3.63L139.46-3.63Q141.78-3.63 143.07-5.3 144.35-6.97 144.35-10.01L144.35-10.01Q144.35-13.05 143.05-14.72 141.74-16.39 139.46-16.39ZM183.93-13.39L183.93-0.04Q183.59 0.04 182.94 0.17 182.28 0.3 181.52 0.3L181.52 0.3Q180 0.3 179.3-0.25 178.61-0.8 178.61-2.2L178.61-2.2 178.61-13.18Q178.61-14.87 177.68-15.63 176.75-16.39 175.23-16.39L175.23-16.39Q174.21-16.39 173.26-16.01 172.31-15.63 171.6-14.99L171.6-14.99Q171.72-14.4 171.72-13.81L171.72-13.81 171.72-0.04Q171.38 0.04 170.73 0.17 170.08 0.3 169.31 0.3L169.31 0.3Q167.79 0.3 167.1-0.25 166.4-0.8 166.4-2.2L166.4-2.2 166.4-13.18Q166.4-14.87 165.43-15.63 164.46-16.39 162.94-16.39L162.94-16.39Q161.88-16.39 160.99-16.05 160.11-15.71 159.52-15.37L159.52-15.37 159.52-0.04Q159.14 0.04 158.5 0.17 157.87 0.3 157.07 0.3L157.07 0.3Q155.59 0.3 154.87-0.25 154.15-0.8 154.15-2.2L154.15-2.2 154.15-15.75Q154.15-16.72 154.58-17.38 155-18.03 155.88-18.63L155.88-18.63Q157.15-19.47 159.09-20.04 161.04-20.61 163.11-20.61L163.11-20.61Q166.95-20.61 169.36-18.54L169.36-18.54Q170.58-19.43 172.17-20.02 173.75-20.61 175.9-20.61L175.9-20.61Q177.55-20.61 179.03-20.21 180.51-19.81 181.58-18.92 182.66-18.03 183.29-16.66 183.93-15.29 183.93-13.39L183.93-13.39ZM209.01-10.01L209.01-10.01Q209.01-7.56 208.28-5.6 207.54-3.63 206.18-2.24 204.83-0.84 202.93-0.11 201.03 0.63 198.67 0.63L198.67 0.63Q196.3 0.63 194.4-0.11 192.5-0.84 191.15-2.22 189.8-3.59 189.06-5.55 188.32-7.52 188.32-10.01L188.32-10.01Q188.32-12.46 189.06-14.42 189.8-16.39 191.17-17.76 192.54-19.13 194.44-19.87 196.34-20.61 198.67-20.61L198.67-20.61Q200.99-20.61 202.89-19.87 204.79-19.13 206.16-17.74 207.54-16.34 208.28-14.38 209.01-12.42 209.01-10.01ZM198.67-16.39L198.67-16.39Q196.39-16.39 195.08-14.72 193.77-13.05 193.77-10.01L193.77-10.01Q193.77-6.93 195.06-5.28 196.34-3.63 198.67-3.63L198.67-3.63Q200.99-3.63 202.28-5.3 203.57-6.97 203.57-10.01L203.57-10.01Q203.57-13.05 202.26-14.72 200.95-16.39 198.67-16.39Z"
							transform="translate(-1.9800000190734863, 28.510000228881836)"></path>
					</g> <!----> <!----> <!----> <!----> <!----> <!----> <!---->
				</g>
			</g>
			<g data-gra="path-slogan" fill-rule="" class="tp-slogan iconsvg-slogansvg" fill="#008ab3"
				transform="translate(5,42.410003662109375)">
				<rect x="0" height="1" y="3.580000877380371" width="75.53499984741211"></rect>
				<rect height="1" y="3.580000877380371" width="75.53499984741211" x="121.49499893188477"></rect>
				<g transform="translate(78.53499984741211,0)">
					<g transform="scale(1)">
						<path
							d="M0.50-1.02L1.10-1.72Q1.52-1.27 2.09-1.00Q2.66-0.73 3.28-0.73L3.28-0.73Q4.06-0.73 4.49-1.09Q4.92-1.44 4.92-2.02L4.92-2.02Q4.92-2.32 4.82-2.53Q4.72-2.74 4.54-2.89Q4.37-3.04 4.13-3.16Q3.89-3.28 3.61-3.41L3.61-3.41L2.48-3.90Q2.21-4.02 1.92-4.19Q1.63-4.36 1.40-4.60Q1.18-4.84 1.03-5.17Q0.89-5.50 0.89-5.93L0.89-5.93Q0.89-6.37 1.07-6.76Q1.26-7.14 1.59-7.42Q1.92-7.70 2.37-7.86Q2.82-8.02 3.36-8.02L3.36-8.02Q4.07-8.02 4.67-7.75Q5.27-7.48 5.69-7.04L5.69-7.04L5.15-6.40Q4.79-6.74 4.35-6.94Q3.91-7.14 3.36-7.14L3.36-7.14Q2.70-7.14 2.30-6.83Q1.90-6.53 1.90-5.99L1.90-5.99Q1.90-5.70 2.01-5.50Q2.12-5.30 2.32-5.15Q2.51-5.00 2.74-4.89Q2.96-4.78 3.20-4.68L3.20-4.68L4.32-4.20Q4.66-4.06 4.96-3.87Q5.26-3.68 5.47-3.44Q5.69-3.19 5.81-2.86Q5.94-2.53 5.94-2.10L5.94-2.10Q5.94-1.63 5.75-1.22Q5.57-0.82 5.22-0.51Q4.87-0.20 4.38-0.03Q3.89 0.14 3.26 0.14L3.26 0.14Q2.44 0.14 1.73-0.17Q1.02-0.48 0.50-1.02L0.50-1.02ZM7.49 0L7.49-7.87L8.48-7.87L8.48-0.85L11.93-0.85L11.93 0L7.49 0ZM15.91 0.14L15.91 0.14Q15.17 0.14 14.55-0.14Q13.93-0.43 13.49-0.97Q13.04-1.50 12.80-2.26Q12.55-3.02 12.55-3.97L12.55-3.97Q12.55-4.92 12.80-5.67Q13.04-6.42 13.49-6.94Q13.93-7.46 14.55-7.74Q15.17-8.02 15.91-8.02L15.91-8.02Q16.66-8.02 17.27-7.73Q17.89-7.45 18.34-6.93Q18.79-6.41 19.04-5.66Q19.28-4.91 19.28-3.97L19.28-3.97Q19.28-3.02 19.04-2.26Q18.79-1.50 18.34-0.97Q17.89-0.43 17.27-0.14Q16.66 0.14 15.91 0.14ZM15.91-0.73L15.91-0.73Q16.44-0.73 16.87-0.96Q17.29-1.19 17.60-1.61Q17.90-2.04 18.07-2.63Q18.24-3.23 18.24-3.97L18.24-3.97Q18.24-4.70 18.07-5.29Q17.90-5.88 17.60-6.29Q17.29-6.70 16.87-6.92Q16.44-7.14 15.91-7.14L15.91-7.14Q15.38-7.14 14.96-6.92Q14.53-6.70 14.23-6.29Q13.92-5.88 13.75-5.29Q13.58-4.70 13.58-3.97L13.58-3.97Q13.58-3.23 13.75-2.63Q13.92-2.04 14.23-1.61Q14.53-1.19 14.96-0.96Q15.38-0.73 15.91-0.73ZM20.52-3.94L20.52-3.94Q20.52-4.88 20.79-5.64Q21.06-6.40 21.55-6.92Q22.03-7.45 22.69-7.73Q23.35-8.02 24.14-8.02L24.14-8.02Q24.96-8.02 25.51-7.71Q26.05-7.40 26.40-7.04L26.40-7.04L25.84-6.41Q25.54-6.72 25.15-6.93Q24.76-7.14 24.16-7.14L24.16-7.14Q23.56-7.14 23.08-6.92Q22.60-6.70 22.26-6.28Q21.92-5.87 21.74-5.28Q21.55-4.69 21.55-3.96L21.55-3.96Q21.55-3.22 21.73-2.62Q21.90-2.03 22.23-1.61Q22.56-1.19 23.05-0.96Q23.53-0.73 24.17-0.73L24.17-0.73Q24.59-0.73 24.97-0.86Q25.34-0.98 25.58-1.20L25.58-1.20L25.58-3.25L23.92-3.25L23.92-4.08L26.50-4.08L26.50-0.77Q26.11-0.37 25.48-0.11Q24.85 0.14 24.06 0.14L24.06 0.14Q23.28 0.14 22.63-0.13Q21.98-0.41 21.52-0.93Q21.05-1.45 20.78-2.21Q20.52-2.98 20.52-3.94ZM29.32-3.20L31.68-3.20L31.31-4.40Q31.09-5.06 30.90-5.72Q30.71-6.37 30.52-7.06L30.52-7.06L30.47-7.06Q30.29-6.37 30.10-5.72Q29.90-5.06 29.69-4.40L29.69-4.40L29.32-3.20ZM32.68 0L31.93-2.40L29.06-2.40L28.31 0L27.29 0L29.95-7.87L31.08-7.87L33.74 0L32.68 0ZM34.86 0L34.86-7.87L35.89-7.87L38.74-2.93L39.59-1.30L39.64-1.30Q39.60-1.90 39.56-2.54Q39.52-3.18 39.52-3.80L39.52-3.80L39.52-7.87L40.46-7.87L40.46 0L39.43 0L36.58-4.96L35.72-6.58L35.68-6.58Q35.72-5.98 35.77-5.36Q35.81-4.74 35.81-4.12L35.81-4.12L35.81 0L34.86 0Z"
							transform="translate(-0.504, 8.016)"></path>
					</g>
				</g>
			</g>
		</g>
	</g>
	<defs v-gra="od"></defs>
</svg>